<svg xmlns="http://www.w3.org/2000/svg" version="1.0" viewBox="0 0 300 250">
    <path fill="white" fill-opacity=".1" d="M126.3 59.7c.9.2 2.3.2 3 0 .6-.3-.1-.5-1.8-.5-1.6 0-2.2.2-1.2.5M97.4 72.2l-1.9 2.3 2.3-1.9c1.2-1.1 2.2-2.1 2.2-2.3 0-.8-.8-.2-2.6 1.9"/>
    <path fill="white" fill-opacity=".9" d="M100.9 79.7c-1.3 1.6-1.2 1.7.4.4.9-.7 1.7-1.5 1.7-1.7 0-.8-.8-.3-2.1 1.3M78 185.4c0 .2.8 1 1.8 1.7 1.5 1.3 1.6 1.2.3-.4s-2.1-2.1-2.1-1.3"/>
    <path fill="white" d="M120.2 61c-9.6 2-19.9 8.6-25.3 16.1l-2 2.8 3 1.5c2.8 1.5 3 1.4 4.4-.8 2.3-3.4 9.5-6.6 14.9-6.6 4.1 0 11.8 3.2 18 7.4 1.7 1.2 1.9.8-19.8 38.4-2 3.4-2.8 4.1-4.1 3.3-1.4-.7-4.2 3.4-17.1 25.8-16.1 27.8-17.1 30.5-13.9 35.5 3.8 5.8 11.3 6.9 15.8 2.2 1.2-1.2 8.8-13.7 16.9-27.6 12.5-21.7 14.5-25.7 13.4-27s.5-4.6 10.4-21.8c6.4-11.1 12-20.2 12.4-20.2.5 0 4.8 2.2 9.6 5 4.8 2.7 9.1 5 9.4 5 .7 0 9.8-15.8 9.8-17 0-1.1-31-18.7-35.8-20.4-5.5-2-14.7-2.7-20-1.6m-72.3 48.8C25.4 123 26 122.5 26 125.9c0 2.7 1.3 3.6 19.2 14C55.8 146 65.5 151 66.6 151c2.8 0 4.6-2.3 4.2-5.2-.3-2.5-3.4-4.6-19.9-14.2l-10.2-5.9 4.9-2.9c2.7-1.6 9.5-5.6 15.2-8.9 8.5-4.9 10.2-6.4 10.2-8.4 0-2.8-2.4-5.5-4.8-5.4-.9 0-9.2 4.4-18.3 9.7m132.3-2.6c-1.7 1.7-1.5 5.3.6 7 .9.9 6.9 4.5 13.2 8.1s12.3 7.2 13.3 7.9c1.6 1.2.2 2.2-12.9 9.7-8 4.7-14.8 9-15.1 9.8-1 2.5.7 6.3 3 6.8 1.8.5 7.1-2.1 21.8-10.7 18.2-10.6 19.4-11.5 19.7-14.4.3-3.1.1-3.3-19-14.3-10.6-6.1-20.2-11.1-21.3-11.1-1.2 0-2.6.5-3.3 1.2"/>
</svg>
